<svg height="3950" width="720" xmlns="http://www.w3.org/2000/svg">
<rect height="3950" fill="#555" width="720"></rect>
<text fill="#7f7" font-family="Courier New" font-size="12" xml:space="preserve">
<tspan x="10" y="26">        49 bytes    2015-06-08 19:36:48 +0800    .gitignore</tspan>
<tspan x="10" y="42"></tspan>
<tspan x="10" y="58">      4680 bytes    2015-06-08 19:36:48 +0800    .travis.yml</tspan>
<tspan x="10" y="74"></tspan>
<tspan x="10" y="90">     12375 bytes    2015-08-20 12:27:31 +0800    README.md</tspan>
<tspan x="10" y="106"></tspan>
<tspan x="10" y="122">    156501 bytes    2015-06-08 19:36:48 +0800    bson/browser_build/bson.js</tspan>
<tspan x="10" y="138"></tspan>
<tspan x="10" y="154">      1599 bytes    2015-08-20 02:20:43 +0800    bson/package.json</tspan>
<tspan x="10" y="170"></tspan>
<tspan x="10" y="186">     31913 bytes    2015-07-31 18:49:19 +0800    es6-promise/dist/es6-promise.js</tspan>
<tspan x="10" y="202"></tspan>
<tspan x="10" y="218">      2502 bytes    2015-08-20 02:20:43 +0800    es6-promise/package.json</tspan>
<tspan x="10" y="234"></tspan>
<tspan x="10" y="250">      1629 bytes    2015-06-08 19:36:48 +0800    mongodb-core/conf.json</tspan>
<tspan x="10" y="266"></tspan>
<tspan x="10" y="282">       674 bytes    2015-07-31 18:49:19 +0800    mongodb-core/index.js</tspan>
<tspan x="10" y="298"></tspan>
<tspan x="10" y="314">      7617 bytes    2015-06-08 19:36:48 +0800    mongodb-core/lib/auth/gssapi.js</tspan>
<tspan x="10" y="330"></tspan>
<tspan x="10" y="346">      5013 bytes    2015-06-08 19:36:48 +0800    mongodb-core/lib/auth/mongocr.js</tspan>
<tspan x="10" y="362"></tspan>
<tspan x="10" y="378">      4332 bytes    2015-06-08 19:36:48 +0800    mongodb-core/lib/auth/plain.js</tspan>
<tspan x="10" y="394"></tspan>
<tspan x="10" y="410">      9761 bytes    2015-07-07 06:37:58 +0800    mongodb-core/lib/auth/scram.js</tspan>
<tspan x="10" y="426"></tspan>
<tspan x="10" y="442">      7295 bytes    2015-06-08 19:36:48 +0800    mongodb-core/lib/auth/sspi.js</tspan>
<tspan x="10" y="458"></tspan>
<tspan x="10" y="474">      4175 bytes    2015-06-08 19:36:48 +0800    mongodb-core/lib/auth/x509.js</tspan>
<tspan x="10" y="490"></tspan>
<tspan x="10" y="506">     17058 bytes    2015-07-31 18:49:19 +0800    mongodb-core/lib/connection/commands.js</tspan>
<tspan x="10" y="522"></tspan>
<tspan x="10" y="538">     17005 bytes    2015-08-20 02:20:43 +0800    mongodb-core/lib/connection/connection.js</tspan>
<tspan x="10" y="554"></tspan>
<tspan x="10" y="570">      5140 bytes    2015-06-08 19:36:48 +0800    mongodb-core/lib/connection/logger.js</tspan>
<tspan x="10" y="586"></tspan>
<tspan x="10" y="602">      7408 bytes    2015-07-31 18:49:19 +0800    mongodb-core/lib/connection/pool.js</tspan>
<tspan x="10" y="618"></tspan>
<tspan x="10" y="634">      2028 bytes    2015-06-08 19:36:48 +0800    mongodb-core/lib/connection/utils.js</tspan>
<tspan x="10" y="650"></tspan>
<tspan x="10" y="666">     24572 bytes    2015-08-20 02:20:43 +0800    mongodb-core/lib/cursor.js</tspan>
<tspan x="10" y="682"></tspan>
<tspan x="10" y="698">       985 bytes    2015-06-08 19:36:48 +0800    mongodb-core/lib/error.js</tspan>
<tspan x="10" y="714"></tspan>
<tspan x="10" y="730">      1634 bytes    2015-06-08 19:36:48 +0800    mongodb-core/lib/tools/smoke_plugin.js</tspan>
<tspan x="10" y="746"></tspan>
<tspan x="10" y="762">       910 bytes    2015-06-08 19:36:48 +0800    mongodb-core/lib/topologies/command_result.js</tspan>
<tspan x="10" y="778"></tspan>
<tspan x="10" y="794">     31853 bytes    2015-08-20 02:20:43 +0800    mongodb-core/lib/topologies/mongos.js</tspan>
<tspan x="10" y="810"></tspan>
<tspan x="10" y="826">      2900 bytes    2015-06-08 19:36:48 +0800    mongodb-core/lib/topologies/read_preference.js</tspan>
<tspan x="10" y="842"></tspan>
<tspan x="10" y="858">     47283 bytes    2015-07-31 18:49:19 +0800    mongodb-core/lib/topologies/replset.js</tspan>
<tspan x="10" y="874"></tspan>
<tspan x="10" y="890">     12597 bytes    2015-07-31 18:49:19 +0800    mongodb-core/lib/topologies/replset_state.js</tspan>
<tspan x="10" y="906"></tspan>
<tspan x="10" y="922">     40197 bytes    2015-08-20 02:20:43 +0800    mongodb-core/lib/topologies/server.js</tspan>
<tspan x="10" y="938"></tspan>
<tspan x="10" y="954">      3497 bytes    2015-06-08 19:36:48 +0800    mongodb-core/lib/topologies/session.js</tspan>
<tspan x="10" y="970"></tspan>
<tspan x="10" y="986">      7996 bytes    2015-06-08 19:36:48 +0800    mongodb-core/lib/topologies/strategies/ping.js</tspan>
<tspan x="10" y="1002"></tspan>
<tspan x="10" y="1018">     18355 bytes    2015-08-20 02:20:43 +0800    mongodb-core/lib/wireprotocol/2_4_support.js</tspan>
<tspan x="10" y="1034"></tspan>
<tspan x="10" y="1050">      9303 bytes    2015-07-31 18:49:19 +0800    mongodb-core/lib/wireprotocol/2_6_support.js</tspan>
<tspan x="10" y="1066"></tspan>
<tspan x="10" y="1082">     14150 bytes    2015-07-31 18:49:19 +0800    mongodb-core/lib/wireprotocol/3_2_support.js</tspan>
<tspan x="10" y="1098"></tspan>
<tspan x="10" y="1114">      9999 bytes    2015-07-07 06:37:58 +0800    mongodb-core/lib/wireprotocol/commands.js</tspan>
<tspan x="10" y="1130"></tspan>
<tspan x="10" y="1146">      1709 bytes    2015-08-20 02:20:43 +0800    mongodb-core/package.json</tspan>
<tspan x="10" y="1162"></tspan>
<tspan x="10" y="1178">       706 bytes    2015-08-20 02:20:43 +0800    mongodb/c.js</tspan>
<tspan x="10" y="1194"></tspan>
<tspan x="10" y="1210">      1879 bytes    2015-07-31 18:49:19 +0800    mongodb/conf.json</tspan>
<tspan x="10" y="1226"></tspan>
<tspan x="10" y="1242">      1564 bytes    2015-08-20 02:20:43 +0800    mongodb/index.js</tspan>
<tspan x="10" y="1258"></tspan>
<tspan x="10" y="1274">     17321 bytes    2015-08-20 02:20:43 +0800    mongodb/lib/admin.js</tspan>
<tspan x="10" y="1290"></tspan>
<tspan x="10" y="1306">     11771 bytes    2015-08-20 02:20:43 +0800    mongodb/lib/aggregation_cursor.js</tspan>
<tspan x="10" y="1322"></tspan>
<tspan x="10" y="1338">     12483 bytes    2015-08-20 02:20:43 +0800    mongodb/lib/apm.js</tspan>
<tspan x="10" y="1354"></tspan>
<tspan x="10" y="1370">     10135 bytes    2015-08-20 02:20:43 +0800    mongodb/lib/bulk/common.js</tspan>
<tspan x="10" y="1386"></tspan>
<tspan x="10" y="1402">     15110 bytes    2015-08-20 02:20:43 +0800    mongodb/lib/bulk/ordered.js</tspan>
<tspan x="10" y="1418"></tspan>
<tspan x="10" y="1434">     15836 bytes    2015-08-20 02:20:43 +0800    mongodb/lib/bulk/unordered.js</tspan>
<tspan x="10" y="1450"></tspan>
<tspan x="10" y="1466">    105069 bytes    2015-08-20 02:20:43 +0800    mongodb/lib/collection.js</tspan>
<tspan x="10" y="1482"></tspan>
<tspan x="10" y="1498">      8832 bytes    2015-08-20 02:20:43 +0800    mongodb/lib/command_cursor.js</tspan>
<tspan x="10" y="1514"></tspan>
<tspan x="10" y="1530">     35276 bytes    2015-08-20 02:20:43 +0800    mongodb/lib/cursor.js</tspan>
<tspan x="10" y="1546"></tspan>
<tspan x="10" y="1562">     62689 bytes    2015-08-20 02:20:43 +0800    mongodb/lib/db.js</tspan>
<tspan x="10" y="1578"></tspan>
<tspan x="10" y="1594">      7367 bytes    2015-07-07 06:37:58 +0800    mongodb/lib/gridfs/chunk.js</tspan>
<tspan x="10" y="1610"></tspan>
<tspan x="10" y="1626">     64365 bytes    2015-08-20 02:20:43 +0800    mongodb/lib/gridfs/grid_store.js</tspan>
<tspan x="10" y="1642"></tspan>
<tspan x="10" y="1658">     16796 bytes    2015-08-20 02:20:43 +0800    mongodb/lib/mongo_client.js</tspan>
<tspan x="10" y="1674"></tspan>
<tspan x="10" y="1690">     14008 bytes    2015-08-20 02:20:43 +0800    mongodb/lib/mongos.js</tspan>
<tspan x="10" y="1706"></tspan>
<tspan x="10" y="1722">      3339 bytes    2015-06-08 19:36:48 +0800    mongodb/lib/read_preference.js</tspan>
<tspan x="10" y="1738"></tspan>
<tspan x="10" y="1754">     16144 bytes    2015-08-20 02:20:43 +0800    mongodb/lib/replset.js</tspan>
<tspan x="10" y="1770"></tspan>
<tspan x="10" y="1786">     12374 bytes    2015-08-20 02:20:43 +0800    mongodb/lib/server.js</tspan>
<tspan x="10" y="1802"></tspan>
<tspan x="10" y="1818">      4766 bytes    2015-08-20 02:20:43 +0800    mongodb/lib/topology_base.js</tspan>
<tspan x="10" y="1834"></tspan>
<tspan x="10" y="1850">     10139 bytes    2015-07-31 18:49:19 +0800    mongodb/lib/url_parser.js</tspan>
<tspan x="10" y="1866"></tspan>
<tspan x="10" y="1882">      5948 bytes    2015-08-20 02:20:43 +0800    mongodb/lib/utils.js</tspan>
<tspan x="10" y="1898"></tspan>
<tspan x="10" y="1914">       957 bytes    2015-07-31 18:49:19 +0800    mongodb/load.js</tspan>
<tspan x="10" y="1930"></tspan>
<tspan x="10" y="1946">      1670 bytes    2015-08-20 02:20:43 +0800    mongodb/package.json</tspan>
<tspan x="10" y="1962"></tspan>
<tspan x="10" y="1978">      1523 bytes    2015-07-07 06:37:58 +0800    mongodb/t.js</tspan>
<tspan x="10" y="1994"></tspan>
<tspan x="10" y="2010">      1831 bytes    2015-08-20 02:20:43 +0800    mongodb/t1.js</tspan>
<tspan x="10" y="2026"></tspan>
<tspan x="10" y="2042">     25413 bytes    2015-08-20 02:20:43 +0800    mongodb/test/functional/aggregation_tests.js</tspan>
<tspan x="10" y="2058"></tspan>
<tspan x="10" y="2074">      7419 bytes    2015-08-20 02:20:43 +0800    mongodb/test/functional/apm_tests.js</tspan>
<tspan x="10" y="2090"></tspan>
<tspan x="10" y="2106">     52394 bytes    2015-08-20 02:20:43 +0800    mongodb/test/functional/authentication_tests.js</tspan>
<tspan x="10" y="2122"></tspan>
<tspan x="10" y="2138">     40455 bytes    2015-08-20 02:20:43 +0800    mongodb/test/functional/bulk_tests.js</tspan>
<tspan x="10" y="2154"></tspan>
<tspan x="10" y="2170">       686 bytes    2015-08-20 02:20:43 +0800    mongodb/test/functional/byo_promises_tests.js</tspan>
<tspan x="10" y="2186"></tspan>
<tspan x="10" y="2202">     34897 bytes    2015-08-20 02:20:43 +0800    mongodb/test/functional/collection_tests.js</tspan>
<tspan x="10" y="2218"></tspan>
<tspan x="10" y="2234">      9725 bytes    2015-08-20 02:20:43 +0800    mongodb/test/functional/connection_tests.js</tspan>
<tspan x="10" y="2250"></tspan>
<tspan x="10" y="2266">     29521 bytes    2015-08-20 02:20:43 +0800    mongodb/test/functional/crud_api_tests.js</tspan>
<tspan x="10" y="2282"></tspan>
<tspan x="10" y="2298">     95794 bytes    2015-08-20 02:20:43 +0800    mongodb/test/functional/cursor_tests.js</tspan>
<tspan x="10" y="2314"></tspan>
<tspan x="10" y="2330">      7251 bytes    2015-08-20 02:20:43 +0800    mongodb/test/functional/cursorstream_tests.js</tspan>
<tspan x="10" y="2346"></tspan>
<tspan x="10" y="2362">      1055 bytes    2015-08-20 02:20:43 +0800    mongodb/test/functional/custom_pk_tests.js</tspan>
<tspan x="10" y="2378"></tspan>
<tspan x="10" y="2394">     16628 bytes    2015-08-20 02:20:43 +0800    mongodb/test/functional/db_tests.js</tspan>
<tspan x="10" y="2410"></tspan>
<tspan x="10" y="2426">      3713 bytes    2015-08-20 02:20:43 +0800    mongodb/test/functional/domain_tests.js</tspan>
<tspan x="10" y="2442"></tspan>
<tspan x="10" y="2458">     10046 bytes    2015-08-20 02:20:43 +0800    mongodb/test/functional/error_tests.js</tspan>
<tspan x="10" y="2474"></tspan>
<tspan x="10" y="2490">     83624 bytes    2015-08-20 02:20:43 +0800    mongodb/test/functional/find_tests.js</tspan>
<tspan x="10" y="2506"></tspan>
<tspan x="10" y="2522">    106253 bytes    2015-08-20 02:20:43 +0800    mongodb/test/functional/gridfs_tests.js</tspan>
<tspan x="10" y="2538"></tspan>
<tspan x="10" y="2554">     27616 bytes    2015-08-20 02:20:43 +0800    mongodb/test/functional/index_tests.js</tspan>
<tspan x="10" y="2570"></tspan>
<tspan x="10" y="2586">     73311 bytes    2015-08-20 02:20:43 +0800    mongodb/test/functional/insert_tests.js</tspan>
<tspan x="10" y="2602"></tspan>
<tspan x="10" y="2618">     10875 bytes    2015-08-20 02:20:43 +0800    mongodb/test/functional/kerberos_tests.js</tspan>
<tspan x="10" y="2634"></tspan>
<tspan x="10" y="2650">      2533 bytes    2015-08-20 02:20:43 +0800    mongodb/test/functional/ldap_tests.js</tspan>
<tspan x="10" y="2666"></tspan>
<tspan x="10" y="2682">      1970 bytes    2015-08-20 02:20:43 +0800    mongodb/test/functional/logger_tests.js</tspan>
<tspan x="10" y="2698"></tspan>
<tspan x="10" y="2714">     12861 bytes    2015-08-20 02:20:43 +0800    mongodb/test/functional/mapreduce_tests.js</tspan>
<tspan x="10" y="2730"></tspan>
<tspan x="10" y="2746">      3329 bytes    2015-08-20 02:20:43 +0800    mongodb/test/functional/maxtimems_tests.js</tspan>
<tspan x="10" y="2762"></tspan>
<tspan x="10" y="2778">     11020 bytes    2015-08-20 02:20:43 +0800    mongodb/test/functional/mongo_client_tests.js</tspan>
<tspan x="10" y="2794"></tspan>
<tspan x="10" y="2810">      4762 bytes    2015-08-20 02:20:43 +0800    mongodb/test/functional/multiple_db_tests.js</tspan>
<tspan x="10" y="2826"></tspan>
<tspan x="10" y="2842">      7259 bytes    2015-08-20 02:20:43 +0800    mongodb/test/functional/object_id_tests.js</tspan>
<tspan x="10" y="2858"></tspan>
<tspan x="10" y="2874">    286551 bytes    2015-08-20 02:20:43 +0800    mongodb/test/functional/operation_example_tests\</tspan>
<tspan x="10" y="2890">.js</tspan>
<tspan x="10" y="2906"></tspan>
<tspan x="10" y="2922">    207694 bytes    2015-08-20 02:20:43 +0800    mongodb/test/functional/operation_generators_ex\</tspan>
<tspan x="10" y="2938">ample_tests.js</tspan>
<tspan x="10" y="2954"></tspan>
<tspan x="10" y="2970">    226165 bytes    2015-08-20 02:20:43 +0800    mongodb/test/functional/operation_promises_exam\</tspan>
<tspan x="10" y="2986">ple_tests.js</tspan>
<tspan x="10" y="3002"></tspan>
<tspan x="10" y="3018">      5447 bytes    2015-08-20 02:20:43 +0800    mongodb/test/functional/promises_collection_tes\</tspan>
<tspan x="10" y="3034">ts.js</tspan>
<tspan x="10" y="3050"></tspan>
<tspan x="10" y="3066">       777 bytes    2015-08-20 02:20:43 +0800    mongodb/test/functional/promises_cursor_tests.j\</tspan>
<tspan x="10" y="3082">s</tspan>
<tspan x="10" y="3098"></tspan>
<tspan x="10" y="3114">      9941 bytes    2015-08-20 02:20:43 +0800    mongodb/test/functional/promises_db_tests.js</tspan>
<tspan x="10" y="3130"></tspan>
<tspan x="10" y="3146">      3179 bytes    2015-08-20 02:20:43 +0800    mongodb/test/functional/raw_tests.js</tspan>
<tspan x="10" y="3162"></tspan>
<tspan x="10" y="3178">     13977 bytes    2015-08-20 02:20:43 +0800    mongodb/test/functional/readpreference_tests.js</tspan>
<tspan x="10" y="3194"></tspan>
<tspan x="10" y="3210">       858 bytes    2015-08-20 02:20:43 +0800    mongodb/test/functional/reconnect_tests.js</tspan>
<tspan x="10" y="3226"></tspan>
<tspan x="10" y="3242">      3836 bytes    2015-08-20 02:20:43 +0800    mongodb/test/functional/remove_tests.js</tspan>
<tspan x="10" y="3258"></tspan>
<tspan x="10" y="3274">     32962 bytes    2015-08-20 02:20:43 +0800    mongodb/test/functional/replset_connection_test\</tspan>
<tspan x="10" y="3290">s.js</tspan>
<tspan x="10" y="3306"></tspan>
<tspan x="10" y="3322">     12526 bytes    2015-08-20 02:20:43 +0800    mongodb/test/functional/replset_failover_tests.\</tspan>
<tspan x="10" y="3338">js</tspan>
<tspan x="10" y="3354"></tspan>
<tspan x="10" y="3370">     13352 bytes    2015-08-20 02:20:43 +0800    mongodb/test/functional/replset_operations_test\</tspan>
<tspan x="10" y="3386">s.js</tspan>
<tspan x="10" y="3402"></tspan>
<tspan x="10" y="3418">     29667 bytes    2015-08-20 02:20:43 +0800    mongodb/test/functional/replset_read_preference\</tspan>
<tspan x="10" y="3434">_tests.js</tspan>
<tspan x="10" y="3450"></tspan>
<tspan x="10" y="3466">      2300 bytes    2015-08-20 02:20:43 +0800    mongodb/test/functional/scram_tests.js</tspan>
<tspan x="10" y="3482"></tspan>
<tspan x="10" y="3498">      6246 bytes    2015-08-20 02:20:43 +0800    mongodb/test/functional/sharding_connection_tes\</tspan>
<tspan x="10" y="3514">ts.js</tspan>
<tspan x="10" y="3530"></tspan>
<tspan x="10" y="3546">      7611 bytes    2015-08-20 02:20:43 +0800    mongodb/test/functional/sharding_failover_tests\</tspan>
<tspan x="10" y="3562">.js</tspan>
<tspan x="10" y="3578"></tspan>
<tspan x="10" y="3594">     11004 bytes    2015-08-20 02:20:43 +0800    mongodb/test/functional/sharding_read_preferenc\</tspan>
<tspan x="10" y="3610">e_tests.js</tspan>
<tspan x="10" y="3626"></tspan>
<tspan x="10" y="3642">     16205 bytes    2015-08-20 02:20:43 +0800    mongodb/test/functional/ssl_mongoclient_tests.j\</tspan>
<tspan x="10" y="3658">s</tspan>
<tspan x="10" y="3674"></tspan>
<tspan x="10" y="3690">     17460 bytes    2015-08-20 02:20:43 +0800    mongodb/test/functional/ssl_validation_tests.js</tspan>
<tspan x="10" y="3706"></tspan>
<tspan x="10" y="3722">     16695 bytes    2015-08-20 02:20:43 +0800    mongodb/test/functional/ssl_x509_connect_tests.\</tspan>
<tspan x="10" y="3738">js</tspan>
<tspan x="10" y="3754"></tspan>
<tspan x="10" y="3770">      5423 bytes    2015-08-20 02:20:43 +0800    mongodb/test/functional/unicode_tests.js</tspan>
<tspan x="10" y="3786"></tspan>
<tspan x="10" y="3802">      6489 bytes    2015-08-20 02:20:43 +0800    mongodb/test/functional/uri_tests.js</tspan>
<tspan x="10" y="3818"></tspan>
<tspan x="10" y="3834">     21410 bytes    2015-08-20 02:20:43 +0800    mongodb/test/functional/url_parser_tests.js</tspan>
<tspan x="10" y="3850"></tspan>
<tspan x="10" y="3866">     73058 bytes    2015-07-31 18:49:19 +0800    nedb/browser-version/out/nedb.min.js</tspan>
<tspan x="10" y="3882"></tspan>
<tspan x="10" y="3898">      1815 bytes    2015-07-07 06:37:58 +0800    nedb/package.json</tspan>
<tspan x="10" y="3914"></tspan>
<tspan x="10" y="3930">      2686 bytes    2015-08-20 07:03:36 +0800    package.json</tspan>
</text>
</svg>
