<svg height="734" width="720" xmlns="http://www.w3.org/2000/svg">
<rect height="734" fill="#555" width="720"></rect>
<text fill="#7f7" font-family="Courier New" font-size="12" xml:space="preserve">
<tspan x="10" y="26">2016-12-03 19:45:21 +0800</tspan>
<tspan x="10" y="42">update README.md</tspan>
<tspan x="10" y="58"></tspan>
<tspan x="10" y="74">2016-12-01 23:38:04 +0800</tspan>
<tspan x="10" y="90">- npm publish 2016.11.1</tspan>
<tspan x="10" y="106">- upgrade to mongodb v2.2.12</tspan>
<tspan x="10" y="122"></tspan>
<tspan x="10" y="138">2015-09-16 20:55:34 +0800</tspan>
<tspan x="10" y="154">- npm publish 2015.8.2</tspan>
<tspan x="10" y="170">- update README.md</tspan>
<tspan x="10" y="186"></tspan>
<tspan x="10" y="202">2015-08-20 02:20:43 +0800</tspan>
<tspan x="10" y="218">- npm publish 2015.8.1</tspan>
<tspan x="10" y="234">- add api documentation</tspan>
<tspan x="10" y="250">- add npm-script build-doc</tspan>
<tspan x="10" y="266"></tspan>
<tspan x="10" y="282">2015-07-31 18:49:19 +0800</tspan>
<tspan x="10" y="298">- npm publish 2015.6.4</tspan>
<tspan x="10" y="314">- update bson@0.4.8, es6-promise@2.1.1, mongodb@2.0.39, and mongodb-core@1.2.6 static dependenci\</tspan>
<tspan x="10" y="330">es</tspan>
<tspan x="10" y="346"></tspan>
<tspan x="10" y="362">2015-07-07 06:37:58 +0800</tspan>
<tspan x="10" y="378">- npm publish 2015.6.3</tspan>
<tspan x="10" y="394">- update to mongodb@2.0.35</tspan>
<tspan x="10" y="410"></tspan>
<tspan x="10" y="426">2015-06-24 23:52:01 +0800</tspan>
<tspan x="10" y="442">- npm publish 2015.6.1</tspan>
<tspan x="10" y="458">- fix version breakage with latest npm install</tspan>
<tspan x="10" y="474"></tspan>
<tspan x="10" y="490">2015-06-09 14:08:12 +0800</tspan>
<tspan x="10" y="506">- npm publish 2.0.33-2015.06.01-f</tspan>
<tspan x="10" y="522">- add test</tspan>
<tspan x="10" y="538">- add coverage</tspan>
<tspan x="10" y="554">- add crud io to example.js</tspan>
<tspan x="10" y="570"></tspan>
<tspan x="10" y="586">2015-06-08 21:32:32 +0800</tspan>
<tspan x="10" y="602">- npm publish 2.0.33-2015.06.01-e</tspan>
<tspan x="10" y="618">- remove symlink in npm install</tspan>
<tspan x="10" y="634"></tspan>
<tspan x="10" y="650">2015-06-08 19:36:48 +0800</tspan>
<tspan x="10" y="666">- npm publish 2.0.33-2015.06.01-b</tspan>
<tspan x="10" y="682"></tspan>
<tspan x="10" y="698">2014-03-26 02:31:50 +0700</tspan>
<tspan x="10" y="714">add blank README.md</tspan>
</text>
</svg>
