<svg height="1006" width="720" xmlns="http://www.w3.org/2000/svg">
<rect height="1006" fill="#555" width="720"></rect>
<text fill="#7f7" font-family="Courier New" font-size="12" xml:space="preserve">
<tspan x="10" y="26">2016-12-01 23:27:35 +0800</tspan>
<tspan x="10" y="42">fix build</tspan>
<tspan x="10" y="58"></tspan>
<tspan x="10" y="74">2016-12-01 23:25:14 +0800</tspan>
<tspan x="10" y="90">fix build</tspan>
<tspan x="10" y="106"></tspan>
<tspan x="10" y="122">2016-12-01 23:23:05 +0800</tspan>
<tspan x="10" y="138">update yml</tspan>
<tspan x="10" y="154"></tspan>
<tspan x="10" y="170">2016-12-01 23:22:09 +0800</tspan>
<tspan x="10" y="186">touch</tspan>
<tspan x="10" y="202"></tspan>
<tspan x="10" y="218">2016-12-01 23:21:28 +0800</tspan>
<tspan x="10" y="234">simplify</tspan>
<tspan x="10" y="250"></tspan>
<tspan x="10" y="266">2016-12-01 23:08:23 +0800</tspan>
<tspan x="10" y="282">improve test-coverage</tspan>
<tspan x="10" y="298"></tspan>
<tspan x="10" y="314">2016-12-01 22:41:52 +0800</tspan>
<tspan x="10" y="330">add lib.mongodb.js</tspan>
<tspan x="10" y="346"></tspan>
<tspan x="10" y="362">2016-12-01 22:38:02 +0800</tspan>
<tspan x="10" y="378">- upgrade to mongodb v2.2.12</tspan>
<tspan x="10" y="394"></tspan>
<tspan x="10" y="410">2015-09-16 20:55:34 +0800</tspan>
<tspan x="10" y="426">- npm publish 2015.8.2</tspan>
<tspan x="10" y="442">- update README.md</tspan>
<tspan x="10" y="458"></tspan>
<tspan x="10" y="474">2015-08-20 02:20:43 +0800</tspan>
<tspan x="10" y="490">- npm publish 2015.8.1</tspan>
<tspan x="10" y="506">- add api documentation</tspan>
<tspan x="10" y="522">- add npm-script build-doc</tspan>
<tspan x="10" y="538"></tspan>
<tspan x="10" y="554">2015-07-31 18:49:19 +0800</tspan>
<tspan x="10" y="570">- npm publish 2015.6.4</tspan>
<tspan x="10" y="586">- update bson@0.4.8, es6-promise@2.1.1, mongodb@2.0.39, and mongodb-core@1.2.6 static dependenci\</tspan>
<tspan x="10" y="602">es</tspan>
<tspan x="10" y="618"></tspan>
<tspan x="10" y="634">2015-07-07 06:37:58 +0800</tspan>
<tspan x="10" y="650">- npm publish 2015.6.3</tspan>
<tspan x="10" y="666">- update to mongodb@2.0.35</tspan>
<tspan x="10" y="682"></tspan>
<tspan x="10" y="698">2015-06-24 23:52:01 +0800</tspan>
<tspan x="10" y="714">- npm publish 2015.6.1</tspan>
<tspan x="10" y="730">- fix version breakage with latest npm install</tspan>
<tspan x="10" y="746"></tspan>
<tspan x="10" y="762">2015-06-09 14:08:12 +0800</tspan>
<tspan x="10" y="778">- npm publish 2.0.33-2015.06.01-f</tspan>
<tspan x="10" y="794">- add test</tspan>
<tspan x="10" y="810">- add coverage</tspan>
<tspan x="10" y="826">- add crud io to example.js</tspan>
<tspan x="10" y="842"></tspan>
<tspan x="10" y="858">2015-06-08 21:32:32 +0800</tspan>
<tspan x="10" y="874">- npm publish 2.0.33-2015.06.01-e</tspan>
<tspan x="10" y="890">- remove symlink in npm install</tspan>
<tspan x="10" y="906"></tspan>
<tspan x="10" y="922">2015-06-08 19:36:48 +0800</tspan>
<tspan x="10" y="938">- npm publish 2.0.33-2015.06.01-b</tspan>
<tspan x="10" y="954"></tspan>
<tspan x="10" y="970">2014-03-26 02:31:50 +0700</tspan>
<tspan x="10" y="986">add blank README.md</tspan>
</text>
</svg>
