<svg height="1214" width="720" xmlns="http://www.w3.org/2000/svg">
<rect height="1214" fill="#555" width="720"></rect>
<text fill="#7f7" font-family="Courier New" font-size="12" xml:space="preserve">
<tspan x="10" y="26"></tspan>
<tspan x="10" y="42">&gt; mongodb-minimal@2016.12.28 test /home/travis/build/kaizhu256/node-mongodb-minimal</tspan>
<tspan x="10" y="58">&gt; export PORT=$(utility2 shServerPortRandom) &amp;&amp; utility2 test test.js</tspan>
<tspan x="10" y="74"></tspan>
<tspan x="10" y="90"></tspan>
<tspan x="10" y="106">[MODE_BUILD=npmTest] - 2016-12-29T08:51:50Z - npm-testing /home/travis/build/kaizhu256/node-mong\</tspan>
<tspan x="10" y="122">odb-minimal</tspan>
<tspan x="10" y="138"></tspan>
<tspan x="10" y="154"></tspan>
<tspan x="10" y="170">covering $ /home/travis/.nvm/versions/node/v7.3.0/bin/node /home/travis/build/kaizhu256/node-mon\</tspan>
<tspan x="10" y="186">godb-minimal/test.js</tspan>
<tspan x="10" y="202">merging file:///home/travis/build/kaizhu256/node-mongodb-minimal/tmp/build/test-report.json to t\</tspan>
<tspan x="10" y="218">est-report</tspan>
<tspan x="10" y="234">&gt; server listening on http-port 64213</tspan>
<tspan x="10" y="250">created documentation file:///home/travis/build/kaizhu256/node-mongodb-minimal/tmp/build/doc.api\</tspan>
<tspan x="10" y="266">.html</tspan>
<tspan x="10" y="282"></tspan>
<tspan x="10" y="298"></tspan>
<tspan x="10" y="314">browserTest - created electron entry-page /home/travis/build/kaizhu256/node-mongodb-minimal/tmp/\</tspan>
<tspan x="10" y="330">electron.15949c741a90.d41991b1a9ddc.html</tspan>
<tspan x="10" y="346"></tspan>
<tspan x="10" y="362">[4338:1229/085152:ERROR:browser_main_loop.cc(231)] Running without the SUID sandbox! See https:/\</tspan>
<tspan x="10" y="378">/chromium.googlesource.com/chromium/src/+/master/docs/linux_suid_sandbox_development.md for more\</tspan>
<tspan x="10" y="394"> information on developing with the sandbox on.</tspan>
<tspan x="10" y="410">Xlib:  extension "RANDR" missing on display ":99.0".</tspan>
<tspan x="10" y="426">merging file:///home/travis/build/kaizhu256/node-mongodb-minimal/tmp/build/test-report.json to t\</tspan>
<tspan x="10" y="442">est-report</tspan>
<tspan x="10" y="458">Xlib:  extension "RANDR" missing on display ":99.0".</tspan>
<tspan x="10" y="474">[4338:1229/085152:WARNING:audio_manager.cc(314)] Multiple instances of AudioManager detected</tspan>
<tspan x="10" y="490">[4338:1229/085152:WARNING:audio_manager.cc(275)] Multiple instances of AudioManager detected</tspan>
<tspan x="10" y="506">[4359:1229/085152:ERROR:sandbox_linux.cc(343)] InitializeSandbox() called with multiple threads \</tspan>
<tspan x="10" y="522">in process gpu-process. </tspan>
<tspan x="10" y="538">[4338:1229/085152:ERROR:browser_gpu_channel_host_factory.cc(131)] Failed to create channel.</tspan>
<tspan x="10" y="554"></tspan>
<tspan x="10" y="570">browserTest - opened url file:///home/travis/build/kaizhu256/node-mongodb-minimal/tmp/build/doc.\</tspan>
<tspan x="10" y="586">api.html</tspan>
<tspan x="10" y="602"></tspan>
<tspan x="10" y="618"></tspan>
<tspan x="10" y="634">browserTest - created screen-capture file:///home/travis/build/kaizhu256/node-mongodb-minimal/tm\</tspan>
<tspan x="10" y="650">p/build/screen-capture.npmTest.browser._2Fhome_2Ftravis_2Fbuild_2Fkaizhu256_2Fnode-mongodb-minim\</tspan>
<tspan x="10" y="666">al_2Ftmp_2Fbuild_2Fdoc.api.html.png</tspan>
<tspan x="10" y="682"></tspan>
<tspan x="10" y="698"></tspan>
<tspan x="10" y="714">browserTest - exit-code 0 - file:///home/travis/build/kaizhu256/node-mongodb-minimal/tmp/build/d\</tspan>
<tspan x="10" y="730">oc.api.html</tspan>
<tspan x="10" y="746"></tspan>
<tspan x="10" y="762">[node test-case 1 of 1 passed] - testCase_build_doc</tspan>
<tspan x="10" y="778">-------------------------|-----------|-----------|-----------|-----------|</tspan>
<tspan x="10" y="794">File                     |   % Stmts |% Branches |   % Funcs |   % Lines |</tspan>
<tspan x="10" y="810">-------------------------|-----------|-----------|-----------|-----------|</tspan>
<tspan x="10" y="826">   node-mongodb-minimal/ |       100 |       100 |       100 |       100 |</tspan>
<tspan x="10" y="842">      test.js            |       100 |       100 |       100 |       100 |</tspan>
<tspan x="10" y="858">-------------------------|-----------|-----------|-----------|-----------|</tspan>
<tspan x="10" y="874">All files                |       100 |       100 |       100 |       100 |</tspan>
<tspan x="10" y="890">-------------------------|-----------|-----------|-----------|-----------|</tspan>
<tspan x="10" y="906"></tspan>
<tspan x="10" y="922">created coverage file:///home/travis/build/kaizhu256/node-mongodb-minimal/tmp/build/coverage.htm\</tspan>
<tspan x="10" y="938">l/index.html</tspan>
<tspan x="10" y="954">merging file:///home/travis/build/kaizhu256/node-mongodb-minimal/tmp/build/test-report.json to t\</tspan>
<tspan x="10" y="970">est-report</tspan>
<tspan x="10" y="986"></tspan>
<tspan x="10" y="1002">-------------------------------------------------------</tspan>
<tspan x="10" y="1018">| test-report - npmTest - node - linux v7.3.0 - 2016-12-29T08:51:50.889Z</tspan>
<tspan x="10" y="1034">|   12147 ms            0 failed        1 passed      |</tspan>
<tspan x="10" y="1050">-------------------------------------------------------</tspan>
<tspan x="10" y="1066">| test-report - npmTestPublished - node - linux v7.3.0 - 2016-12-29T08:51:36.028Z</tspan>
<tspan x="10" y="1082">|   12481 ms            0 failed        1 passed      |</tspan>
<tspan x="10" y="1098">-------------------------------------------------------</tspan>
<tspan x="10" y="1114"></tspan>
<tspan x="10" y="1130">created test-report file:///home/travis/build/kaizhu256/node-mongodb-minimal/tmp/build/test-repo\</tspan>
<tspan x="10" y="1146">rt.html</tspan>
<tspan x="10" y="1162"></tspan>
<tspan x="10" y="1178"></tspan>
<tspan x="10" y="1194">npmTest - 0 failed tests</tspan>
</text>
</svg>
