<svg height="1566" width="720" xmlns="http://www.w3.org/2000/svg">
<rect height="1566" fill="#555" width="720"></rect>
<text fill="#7f7" font-family="Courier New" font-size="12" xml:space="preserve">
<tspan x="10" y="26"></tspan>
<tspan x="10" y="42">[MODE_BUILD=npmTestPublished] - 2017-01-27T09:24:43Z - npm-testing published-package mongodb-min\</tspan>
<tspan x="10" y="58">imal</tspan>
<tspan x="10" y="74"></tspan>
<tspan x="10" y="90"></tspan>
<tspan x="10" y="106">&gt; mongodb-minimal@2016.12.28 postinstall /tmp/app/node_modules/mongodb-minimal</tspan>
<tspan x="10" y="122">&gt; for DIR in .bin electron-lite utility2; do     (if [ -d node_modules/$DIR ] &amp;&amp; [ ! -d $DIR ]; \</tspan>
<tspan x="10" y="138">then mv node_modules/$DIR .; fi); done; rm -fr node_modules &amp;&amp; ln -s . node_modules</tspan>
<tspan x="10" y="154"></tspan>
<tspan x="10" y="170">/tmp/app</tspan>
<tspan x="10" y="186">└── mongodb-minimal@2016.12.28 </tspan>
<tspan x="10" y="202"></tspan>
<tspan x="10" y="218">npm WARN enoent ENOENT: no such file or directory, open '/tmp/app/package.json'</tspan>
<tspan x="10" y="234">npm WARN app No description</tspan>
<tspan x="10" y="250">npm WARN app No repository field.</tspan>
<tspan x="10" y="266">npm WARN app No README data</tspan>
<tspan x="10" y="282">npm WARN app No license field.</tspan>
<tspan x="10" y="298"></tspan>
<tspan x="10" y="314">&gt; electron-lite@2017.1.6 postinstall /tmp/app/node_modules/mongodb-minimal/node_modules/electron\</tspan>
<tspan x="10" y="330">-lite</tspan>
<tspan x="10" y="346">&gt; if [ -f lib.electron.npm-scripts.sh ]; then ./lib.electron.npm-scripts.sh postinstall; fi</tspan>
<tspan x="10" y="362"></tspan>
<tspan x="10" y="378"></tspan>
<tspan x="10" y="394">&gt; utility2@2017.1.28 postinstall /tmp/app/node_modules/mongodb-minimal/node_modules/utility2</tspan>
<tspan x="10" y="410">&gt; if [ -f lib.utility2.npm-scripts.sh ]; then ./lib.utility2.npm-scripts.sh postinstall; fi</tspan>
<tspan x="10" y="426"></tspan>
<tspan x="10" y="442"></tspan>
<tspan x="10" y="458">&gt; mongodb-minimal@2016.12.28 postinstall /tmp/app/node_modules/mongodb-minimal</tspan>
<tspan x="10" y="474">&gt; for DIR in .bin electron-lite utility2; do     (if [ -d node_modules/$DIR ] &amp;&amp; [ ! -d $DIR ]; \</tspan>
<tspan x="10" y="490">then mv node_modules/$DIR .; fi); done; rm -fr node_modules &amp;&amp; ln -s . node_modules</tspan>
<tspan x="10" y="506"></tspan>
<tspan x="10" y="522">mongodb-minimal@2016.12.28 /tmp/app/node_modules/mongodb-minimal</tspan>
<tspan x="10" y="538">├── electron-lite@2017.1.6  (git://github.com/kaizhu256/node-electron-lite.git#1a2dc1cd743eb5b7a\</tspan>
<tspan x="10" y="554">84916f4f1fd192d422e4387)</tspan>
<tspan x="10" y="570">└── utility2@2017.1.28  (git://github.com/kaizhu256/node-utility2.git#9c984d8f17beeec3de97f6c77b\</tspan>
<tspan x="10" y="586">eae7536c31cd8a)</tspan>
<tspan x="10" y="602"></tspan>
<tspan x="10" y="618"></tspan>
<tspan x="10" y="634">&gt; mongodb-minimal@2016.12.28 test /tmp/app/node_modules/mongodb-minimal</tspan>
<tspan x="10" y="650">&gt; export PORT=$(utility2 shServerPortRandom) &amp;&amp; utility2 test test.js</tspan>
<tspan x="10" y="666"></tspan>
<tspan x="10" y="682"></tspan>
<tspan x="10" y="698">[MODE_BUILD=npmTestPublished] - 2017-01-27T09:24:48Z - npm-testing /tmp/app/node_modules/mongodb\</tspan>
<tspan x="10" y="714">-minimal</tspan>
<tspan x="10" y="730"></tspan>
<tspan x="10" y="746"></tspan>
<tspan x="10" y="762">covering $ /home/travis/.nvm/versions/node/v7.4.0/bin/node /tmp/app/node_modules/mongodb-minimal\</tspan>
<tspan x="10" y="778">/test.js</tspan>
<tspan x="10" y="794">&gt; server listening on http-port 45584</tspan>
<tspan x="10" y="810">created documentation file:///tmp/app/node_modules/mongodb-minimal/tmp/build/doc.api.html</tspan>
<tspan x="10" y="826"></tspan>
<tspan x="10" y="842"></tspan>
<tspan x="10" y="858">browserTest - created electron entry-page /tmp/app/node_modules/mongodb-minimal/tmp/electron.159\</tspan>
<tspan x="10" y="874">df3ddae30.9afd1bba6d4d9.html</tspan>
<tspan x="10" y="890"></tspan>
<tspan x="10" y="906">[4173:0127/092450:ERROR:browser_main_loop.cc(231)] Running without the SUID sandbox! See https:/\</tspan>
<tspan x="10" y="922">/chromium.googlesource.com/chromium/src/+/master/docs/linux_suid_sandbox_development.md for more\</tspan>
<tspan x="10" y="938"> information on developing with the sandbox on.</tspan>
<tspan x="10" y="954">Xlib:  extension "RANDR" missing on display ":99.0".</tspan>
<tspan x="10" y="970">Xlib:  extension "RANDR" missing on display ":99.0".</tspan>
<tspan x="10" y="986">[4173:0127/092450:WARNING:audio_manager.cc(314)] Multiple instances of AudioManager detected</tspan>
<tspan x="10" y="1002">[4173:0127/092450:WARNING:audio_manager.cc(275)] Multiple instances of AudioManager detected</tspan>
<tspan x="10" y="1018">[4193:0127/092450:ERROR:sandbox_linux.cc(343)] InitializeSandbox() called with multiple threads \</tspan>
<tspan x="10" y="1034">in process gpu-process. </tspan>
<tspan x="10" y="1050"></tspan>
<tspan x="10" y="1066">browserTest - opened url file:///tmp/app/node_modules/mongodb-minimal/tmp/build/doc.api.html</tspan>
<tspan x="10" y="1082"></tspan>
<tspan x="10" y="1098"></tspan>
<tspan x="10" y="1114">browserTest - created screen-capture file:///tmp/app/node_modules/mongodb-minimal/tmp/build/scre\</tspan>
<tspan x="10" y="1130">en-capture.npmTestPublished.browser._2Ftmp_2Fapp_2Fnode_modules_2Fmongodb-minimal_2Ftmp_2Fbuild_\</tspan>
<tspan x="10" y="1146">2Fdoc.api.html.png</tspan>
<tspan x="10" y="1162"></tspan>
<tspan x="10" y="1178"></tspan>
<tspan x="10" y="1194">browserTest - exit-code 0 - file:///tmp/app/node_modules/mongodb-minimal/tmp/build/doc.api.html</tspan>
<tspan x="10" y="1210"></tspan>
<tspan x="10" y="1226">[node test-case 1 of 1 passed] - testCase_build_doc</tspan>
<tspan x="10" y="1242">--------------------|-----------|-----------|-----------|-----------|</tspan>
<tspan x="10" y="1258">File                |   % Stmts |% Branches |   % Funcs |   % Lines |</tspan>
<tspan x="10" y="1274">--------------------|-----------|-----------|-----------|-----------|</tspan>
<tspan x="10" y="1290">   mongodb-minimal/ |       100 |       100 |       100 |       100 |</tspan>
<tspan x="10" y="1306">      test.js       |       100 |       100 |       100 |       100 |</tspan>
<tspan x="10" y="1322">--------------------|-----------|-----------|-----------|-----------|</tspan>
<tspan x="10" y="1338">All files           |       100 |       100 |       100 |       100 |</tspan>
<tspan x="10" y="1354">--------------------|-----------|-----------|-----------|-----------|</tspan>
<tspan x="10" y="1370"></tspan>
<tspan x="10" y="1386">created coverage file:///tmp/app/node_modules/mongodb-minimal/tmp/build/coverage.html/index.html</tspan>
<tspan x="10" y="1402"></tspan>
<tspan x="10" y="1418">-------------------------------------------------------</tspan>
<tspan x="10" y="1434">| test-report - npmTestPublished - node - linux v7.4.0 - 2017-01-27T09:24:48.444Z</tspan>
<tspan x="10" y="1450">|    7561 ms            0 failed        1 passed      |</tspan>
<tspan x="10" y="1466">-------------------------------------------------------</tspan>
<tspan x="10" y="1482"></tspan>
<tspan x="10" y="1498">created test-report file:///tmp/app/node_modules/mongodb-minimal/tmp/build/test-report.html</tspan>
<tspan x="10" y="1514"></tspan>
<tspan x="10" y="1530"></tspan>
<tspan x="10" y="1546">npmTestPublished - 0 failed tests</tspan>
</text>
</svg>
