<svg height="590" width="720" xmlns="http://www.w3.org/2000/svg">
<rect height="590" fill="#555" width="720"></rect>
<text fill="#7f7" font-family="Courier New" font-size="12" xml:space="preserve">
<tspan x="10" y="26"></tspan>
<tspan x="10" y="42">[MODE_BUILD=testExampleJs] - 2015-08-20T04:29:24Z - testing example.js</tspan>
<tspan x="10" y="58"></tspan>
<tspan x="10" y="74">jslint-lite@2015.6.3 node_modules/jslint-lite</tspan>
<tspan x="10" y="90">npm install mongodb-minimal &amp;&amp; node example.js</tspan>
<tspan x="10" y="106"></tspan>
<tspan x="10" y="122"></tspan>
<tspan x="10" y="138">&gt; mongodb-minimal@2015.8.1 postinstall /tmp/app/node_modules/mongodb-minimal</tspan>
<tspan x="10" y="154">&gt; mkdir -p node_modules &amp;&amp; printf "module.exports = require('../bson/browser_build/bson.js')(); \</tspan>
<tspan x="10" y="170">module.exports.native = module.exports.pure = function () {     return module.exports; }; module\</tspan>
<tspan x="10" y="186">.exports.ObjectId = module.exports.ObjectID; " &gt; node_modules/bson.js &amp;&amp; printf "module.exports \</tspan>
<tspan x="10" y="202">= require('../es6-promise');" &gt; node_modules/es6-promise.js &amp;&amp; printf " module.exports = require\</tspan>
<tspan x="10" y="218">('../mongodb'); module.exports.bson = require('bson'); module.exports.core = require('mongodb-co\</tspan>
<tspan x="10" y="234">re'); " &gt; node_modules/mongodb.js &amp;&amp; printf "module.exports = require('../mongodb-core');" &gt; nod\</tspan>
<tspan x="10" y="250">e_modules/mongodb-core.js</tspan>
<tspan x="10" y="266"></tspan>
<tspan x="10" y="282">mongodb-minimal@2015.8.1 node_modules/mongodb-minimal</tspan>
<tspan x="10" y="298">step 1</tspan>
<tspan x="10" y="314">connecting to mongodb server</tspan>
<tspan x="10" y="330">step 2</tspan>
<tspan x="10" y="346">connected to mongodb server</tspan>
<tspan x="10" y="362">step 3</tspan>
<tspan x="10" y="378">inserting document into collection - {"_id":"0.a46bbca3","value":"hello"}</tspan>
<tspan x="10" y="394">step 4</tspan>
<tspan x="10" y="410">updating document in collection</tspan>
<tspan x="10" y="426">step 5</tspan>
<tspan x="10" y="442">finding document in collection</tspan>
<tspan x="10" y="458">step 6</tspan>
<tspan x="10" y="474">found document in collection - {"_id":"0.a46bbca3","value":"bye"}</tspan>
<tspan x="10" y="490">step 7</tspan>
<tspan x="10" y="506">removing document from collection</tspan>
<tspan x="10" y="522">step 8</tspan>
<tspan x="10" y="538">removed 1 document from collection</tspan>
<tspan x="10" y="554">step 9</tspan>
<tspan x="10" y="570">disconnecting from mongodb server</tspan>
</text>
</svg>
