<svg height="702" width="720" xmlns="http://www.w3.org/2000/svg">
<rect height="702" fill="#555" width="720"></rect>
<text fill="#7f7" font-family="Courier New" font-size="12" xml:space="preserve">
<tspan x="10" y="26">2015-08-20 12:27:31 +0800</tspan>
<tspan x="10" y="42">'update README.md'</tspan>
<tspan x="10" y="58"></tspan>
<tspan x="10" y="74">2015-08-20 08:16:38 +0800</tspan>
<tspan x="10" y="90">'update README.md'</tspan>
<tspan x="10" y="106"></tspan>
<tspan x="10" y="122">2015-08-20 07:03:36 +0800</tspan>
<tspan x="10" y="138">update api-docs</tspan>
<tspan x="10" y="154"></tspan>
<tspan x="10" y="170">2015-08-20 02:20:43 +0800</tspan>
<tspan x="10" y="186">- npm publish 2015.8.1</tspan>
<tspan x="10" y="202">- add api documentation</tspan>
<tspan x="10" y="218">- add npm-script build-doc</tspan>
<tspan x="10" y="234"></tspan>
<tspan x="10" y="250">2015-07-31 18:49:19 +0800</tspan>
<tspan x="10" y="266">- npm publish 2015.6.4</tspan>
<tspan x="10" y="282">- update bson@0.4.8, es6-promise@2.1.1, mongodb@2.0.39, and mongodb-core@1.2.6 static dependenci\</tspan>
<tspan x="10" y="298">es</tspan>
<tspan x="10" y="314"></tspan>
<tspan x="10" y="330">2015-07-07 06:37:58 +0800</tspan>
<tspan x="10" y="346">- npm publish 2015.6.3</tspan>
<tspan x="10" y="362">- update to mongodb@2.0.35</tspan>
<tspan x="10" y="378"></tspan>
<tspan x="10" y="394">2015-06-24 23:52:01 +0800</tspan>
<tspan x="10" y="410">- npm publish 2015.6.1</tspan>
<tspan x="10" y="426">- fix version breakage with latest npm install</tspan>
<tspan x="10" y="442"></tspan>
<tspan x="10" y="458">2015-06-09 14:08:12 +0800</tspan>
<tspan x="10" y="474">- npm publish 2.0.33-2015.06.01-f</tspan>
<tspan x="10" y="490">- add test</tspan>
<tspan x="10" y="506">- add coverage</tspan>
<tspan x="10" y="522">- add crud io to example.js</tspan>
<tspan x="10" y="538"></tspan>
<tspan x="10" y="554">2015-06-08 21:32:32 +0800</tspan>
<tspan x="10" y="570">- npm publish 2.0.33-2015.06.01-e</tspan>
<tspan x="10" y="586">- remove symlink in npm install</tspan>
<tspan x="10" y="602"></tspan>
<tspan x="10" y="618">2015-06-08 19:36:48 +0800</tspan>
<tspan x="10" y="634">- npm publish 2.0.33-2015.06.01-b</tspan>
<tspan x="10" y="650"></tspan>
<tspan x="10" y="666">2014-03-26 02:31:50 +0700</tspan>
<tspan x="10" y="682">add blank README.md</tspan>
</text>
</svg>
