<svg height="622" width="720" xmlns="http://www.w3.org/2000/svg">
<rect height="622" fill="#555" width="720"></rect>
<text fill="#7f7" font-family="Courier New" font-size="12" xml:space="preserve">
<tspan x="10" y="26">2015-09-16 20:55:34 +0800</tspan>
<tspan x="10" y="42">- npm publish 2015.8.2</tspan>
<tspan x="10" y="58">- update README.md</tspan>
<tspan x="10" y="74"></tspan>
<tspan x="10" y="90">2015-08-20 02:20:43 +0800</tspan>
<tspan x="10" y="106">- npm publish 2015.8.1</tspan>
<tspan x="10" y="122">- add api documentation</tspan>
<tspan x="10" y="138">- add npm-script build-doc</tspan>
<tspan x="10" y="154"></tspan>
<tspan x="10" y="170">2015-07-31 18:49:19 +0800</tspan>
<tspan x="10" y="186">- npm publish 2015.6.4</tspan>
<tspan x="10" y="202">- update bson@0.4.8, es6-promise@2.1.1, mongodb@2.0.39, and mongodb-core@1.2.6 static dependenci\</tspan>
<tspan x="10" y="218">es</tspan>
<tspan x="10" y="234"></tspan>
<tspan x="10" y="250">2015-07-07 06:37:58 +0800</tspan>
<tspan x="10" y="266">- npm publish 2015.6.3</tspan>
<tspan x="10" y="282">- update to mongodb@2.0.35</tspan>
<tspan x="10" y="298"></tspan>
<tspan x="10" y="314">2015-06-24 23:52:01 +0800</tspan>
<tspan x="10" y="330">- npm publish 2015.6.1</tspan>
<tspan x="10" y="346">- fix version breakage with latest npm install</tspan>
<tspan x="10" y="362"></tspan>
<tspan x="10" y="378">2015-06-09 14:08:12 +0800</tspan>
<tspan x="10" y="394">- npm publish 2.0.33-2015.06.01-f</tspan>
<tspan x="10" y="410">- add test</tspan>
<tspan x="10" y="426">- add coverage</tspan>
<tspan x="10" y="442">- add crud io to example.js</tspan>
<tspan x="10" y="458"></tspan>
<tspan x="10" y="474">2015-06-08 21:32:32 +0800</tspan>
<tspan x="10" y="490">- npm publish 2.0.33-2015.06.01-e</tspan>
<tspan x="10" y="506">- remove symlink in npm install</tspan>
<tspan x="10" y="522"></tspan>
<tspan x="10" y="538">2015-06-08 19:36:48 +0800</tspan>
<tspan x="10" y="554">- npm publish 2.0.33-2015.06.01-b</tspan>
<tspan x="10" y="570"></tspan>
<tspan x="10" y="586">2014-03-26 02:31:50 +0700</tspan>
<tspan x="10" y="602">add blank README.md</tspan>
</text>
</svg>
